<?xml version="1.0" encoding="UTF-8" standalone="no"?>
<!DOCTYPE svg PUBLIC "-//W3C//DTD SVG 1.1//EN"
 "http://www.w3.org/Graphics/SVG/1.1/DTD/svg11.dtd">
<!-- Generated by graphviz version 2.38.0 (20140413.2041)
 -->
<!-- Title: controllers_diagram Pages: 1 -->
<svg width="412pt" height="461pt"
 viewBox="0.00 0.00 411.65 461.00" xmlns="http://www.w3.org/2000/svg" xmlns:xlink="http://www.w3.org/1999/xlink">
<g id="graph0" class="graph" transform="scale(1 1) rotate(0) translate(94.0967 247.5)">
<title>controllers_diagram</title>
<polygon fill="none" stroke="none" points="-94.0967,213.5 -94.0967,-247.5 317.548,-247.5 317.548,213.5 -94.0967,213.5"/>
<!-- _diagram_info -->
<g id="node1" class="node"><title>_diagram_info</title>
<text text-anchor="start" x="83.3123" y="-104.1" font-family="Times,serif" font-size="13.00">Controllers diagram</text>
<text text-anchor="start" x="83.3123" y="-91.1" font-family="Times,serif" font-size="13.00">Date: May 05 2016 &#45; 15:17</text>
<text text-anchor="start" x="83.3123" y="-78.1" font-family="Times,serif" font-size="13.00">Migration version: 20160505181243</text>
<text text-anchor="start" x="83.3123" y="-65.1" font-family="Times,serif" font-size="13.00">Generated by RailRoady 1.4.2</text>
<text text-anchor="start" x="83.3123" y="-52.1" font-family="Times,serif" font-size="13.00">http://railroady.prestonlee.com</text>
</g>
<!-- ApplicationController -->
<g id="node2" class="node"><title>ApplicationController</title>
<path fill="none" stroke="black" d="M87.0342,74C87.0342,74 260.966,74 260.966,74 266.966,74 272.966,68 272.966,62 272.966,62 272.966,-4 272.966,-4 272.966,-10 266.966,-16 260.966,-16 260.966,-16 87.0342,-16 87.0342,-16 81.0342,-16 75.0342,-10 75.0342,-4 75.0342,-4 75.0342,62 75.0342,62 75.0342,68 81.0342,74 87.0342,74"/>
<text text-anchor="middle" x="174" y="-0.8" font-family="Times,serif" font-size="14.00">ApplicationController</text>
<polyline fill="none" stroke="black" points="75.0342,6 272.966,6 "/>
<polyline fill="none" stroke="black" points="75.0342,30 272.966,30 "/>
<text text-anchor="start" x="83.0342" y="45.2" font-family="Times,serif" font-size="14.00">configure_permitted_parameters</text>
<polyline fill="none" stroke="black" points="75.0342,52 272.966,52 "/>
<text text-anchor="start" x="83.0342" y="67.2" font-family="Times,serif" font-size="14.00">_layout</text>
</g>
<!-- CartsController -->
<g id="node3" class="node"><title>CartsController</title>
<path fill="none" stroke="black" d="M222.452,209C222.452,209 301.548,209 301.548,209 307.548,209 313.548,203 313.548,197 313.548,197 313.548,131 313.548,131 313.548,125 307.548,119 301.548,119 301.548,119 222.452,119 222.452,119 216.452,119 210.452,125 210.452,131 210.452,131 210.452,197 210.452,197 210.452,203 216.452,209 222.452,209"/>
<text text-anchor="middle" x="262" y="134.2" font-family="Times,serif" font-size="14.00">CartsController</text>
<polyline fill="none" stroke="black" points="210.452,141 313.548,141 "/>
<text text-anchor="start" x="218.452" y="156.2" font-family="Times,serif" font-size="14.00">show</text>
<polyline fill="none" stroke="black" points="210.452,163 313.548,163 "/>
<polyline fill="none" stroke="black" points="210.452,187 313.548,187 "/>
<text text-anchor="start" x="218.452" y="202.2" font-family="Times,serif" font-size="14.00">_layout</text>
</g>
<!-- CategoriesController -->
<g id="node4" class="node"><title>CategoriesController</title>
<path fill="none" stroke="black" d="M162.293,-151C162.293,-151 271.707,-151 271.707,-151 277.707,-151 283.707,-157 283.707,-163 283.707,-163 283.707,-231 283.707,-231 283.707,-237 277.707,-243 271.707,-243 271.707,-243 162.293,-243 162.293,-243 156.293,-243 150.293,-237 150.293,-231 150.293,-231 150.293,-163 150.293,-163 150.293,-157 156.293,-151 162.293,-151"/>
<text text-anchor="middle" x="217" y="-227.8" font-family="Times,serif" font-size="14.00">CategoriesController</text>
<polyline fill="none" stroke="black" points="150.293,-221 283.707,-221 "/>
<polyline fill="none" stroke="black" points="150.293,-197 283.707,-197 "/>
<polyline fill="none" stroke="black" points="150.293,-173 283.707,-173 "/>
<text text-anchor="start" x="158.293" y="-157.8" font-family="Times,serif" font-size="14.00">_layout</text>
</g>
<!-- DashboardController -->
<g id="node5" class="node"><title>DashboardController</title>
<path fill="none" stroke="black" d="M-78.0967,-136C-78.0967,-136 32.0967,-136 32.0967,-136 38.0967,-136 44.0967,-142 44.0967,-148 44.0967,-148 44.0967,-214 44.0967,-214 44.0967,-220 38.0967,-226 32.0967,-226 32.0967,-226 -78.0967,-226 -78.0967,-226 -84.0967,-226 -90.0967,-220 -90.0967,-214 -90.0967,-214 -90.0967,-148 -90.0967,-148 -90.0967,-142 -84.0967,-136 -78.0967,-136"/>
<text text-anchor="middle" x="-23" y="-210.8" font-family="Times,serif" font-size="14.00">DashboardController</text>
<polyline fill="none" stroke="black" points="-90.0967,-204 44.0967,-204 "/>
<text text-anchor="start" x="-82.0967" y="-188.8" font-family="Times,serif" font-size="14.00">index</text>
<polyline fill="none" stroke="black" points="-90.0967,-182 44.0967,-182 "/>
<polyline fill="none" stroke="black" points="-90.0967,-158 44.0967,-158 "/>
<text text-anchor="start" x="-82.0967" y="-142.8" font-family="Times,serif" font-size="14.00">_layout</text>
</g>
<!-- OrdersController -->
<g id="node6" class="node"><title>OrdersController</title>
<path fill="none" stroke="black" d="M87.1792,194C87.1792,194 174.821,194 174.821,194 180.821,194 186.821,188 186.821,182 186.821,182 186.821,116 186.821,116 186.821,110 180.821,104 174.821,104 174.821,104 87.1792,104 87.1792,104 81.1792,104 75.1792,110 75.1792,116 75.1792,116 75.1792,182 75.1792,182 75.1792,188 81.1792,194 87.1792,194"/>
<text text-anchor="middle" x="131" y="119.2" font-family="Times,serif" font-size="14.00">OrdersController</text>
<polyline fill="none" stroke="black" points="75.1792,126 186.821,126 "/>
<text text-anchor="start" x="83.1792" y="141.2" font-family="Times,serif" font-size="14.00">create</text>
<polyline fill="none" stroke="black" points="75.1792,148 186.821,148 "/>
<polyline fill="none" stroke="black" points="75.1792,172 186.821,172 "/>
<text text-anchor="start" x="83.1792" y="187.2" font-family="Times,serif" font-size="14.00">_layout</text>
</g>
<!-- ProductsController -->
<g id="node7" class="node"><title>ProductsController</title>
<path fill="none" stroke="black" d="M-63.2725,104C-63.2725,104 35.2725,104 35.2725,104 41.2725,104 47.2725,98 47.2725,92 47.2725,92 47.2725,-86 47.2725,-86 47.2725,-92 41.2725,-98 35.2725,-98 35.2725,-98 -63.2725,-98 -63.2725,-98 -69.2725,-98 -75.2725,-92 -75.2725,-86 -75.2725,-86 -75.2725,92 -75.2725,92 -75.2725,98 -69.2725,104 -63.2725,104"/>
<text text-anchor="middle" x="-14" y="-82.8" font-family="Times,serif" font-size="14.00">ProductsController</text>
<polyline fill="none" stroke="black" points="-75.2725,-76 47.2725,-76 "/>
<text text-anchor="start" x="-67.2725" y="-60.8" font-family="Times,serif" font-size="14.00">index</text>
<text text-anchor="start" x="-67.2725" y="-46.8" font-family="Times,serif" font-size="14.00">destroy</text>
<text text-anchor="start" x="-67.2725" y="-32.8" font-family="Times,serif" font-size="14.00">edit</text>
<text text-anchor="start" x="-67.2725" y="-18.8" font-family="Times,serif" font-size="14.00">create</text>
<text text-anchor="start" x="-67.2725" y="-4.8" font-family="Times,serif" font-size="14.00">new</text>
<text text-anchor="start" x="-67.2725" y="9.2" font-family="Times,serif" font-size="14.00">show</text>
<text text-anchor="start" x="-67.2725" y="23.2" font-family="Times,serif" font-size="14.00">update</text>
<polyline fill="none" stroke="black" points="-75.2725,30 47.2725,30 "/>
<polyline fill="none" stroke="black" points="-75.2725,54 47.2725,54 "/>
<text text-anchor="start" x="-67.2725" y="69.2" font-family="Times,serif" font-size="14.00">_layout</text>
<text text-anchor="start" x="-67.2725" y="83.2" font-family="Times,serif" font-size="14.00">product_params</text>
<text text-anchor="start" x="-67.2725" y="97.2" font-family="Times,serif" font-size="14.00">set_product</text>
</g>
</g>
</svg>
