<?xml version="1.0" encoding="UTF-8" standalone="no"?>
<!DOCTYPE svg PUBLIC "-//W3C//DTD SVG 1.1//EN"
 "http://www.w3.org/Graphics/SVG/1.1/DTD/svg11.dtd">
<!-- Generated by graphviz version 2.38.0 (20140413.2041)
 -->
<!-- Title: models_diagram Pages: 1 -->
<svg width="504pt" height="297pt"
 viewBox="0.00 0.00 503.69 297.00" xmlns="http://www.w3.org/2000/svg" xmlns:xlink="http://www.w3.org/1999/xlink">
<g id="graph0" class="graph" transform="scale(1 1) rotate(0) translate(4 293)">
<title>models_diagram</title>
<polygon fill="none" stroke="none" points="-4,4 -4,-293 499.688,-293 499.688,4 -4,4"/>
<!-- _diagram_info -->
<g id="node1" class="node"><title>_diagram_info</title>
<text text-anchor="start" x="8" y="-274.6" font-family="Times,serif" font-size="13.00">Models diagram</text>
<text text-anchor="start" x="8" y="-261.6" font-family="Times,serif" font-size="13.00">Date: May 04 2016 &#45; 19:32</text>
<text text-anchor="start" x="8" y="-248.6" font-family="Times,serif" font-size="13.00">Migration version: 20160424041241</text>
<text text-anchor="start" x="8" y="-235.6" font-family="Times,serif" font-size="13.00">Generated by RailRoady 1.4.2</text>
<text text-anchor="start" x="8" y="-222.6" font-family="Times,serif" font-size="13.00">http://railroady.prestonlee.com</text>
</g>
<!-- ApplicationRecord -->
<g id="node2" class="node"><title>ApplicationRecord</title>
<ellipse fill="none" stroke="black" cx="302.688" cy="-252.5" rx="77.2916" ry="18"/>
<text text-anchor="middle" x="302.688" y="-248.3" font-family="Times,serif" font-size="14.00">ApplicationRecord</text>
</g>
<!-- Category -->
<g id="node3" class="node"><title>Category</title>
<ellipse fill="none" stroke="black" cx="440.688" cy="-252.5" rx="42.5456" ry="18"/>
<text text-anchor="middle" x="440.688" y="-248.3" font-family="Times,serif" font-size="14.00">Category</text>
</g>
<!-- Product -->
<g id="node5" class="node"><title>Product</title>
<ellipse fill="none" stroke="black" cx="440.688" cy="-162" rx="37.7352" ry="18"/>
<text text-anchor="middle" x="440.688" y="-157.8" font-family="Times,serif" font-size="14.00">Product</text>
</g>
<!-- Category&#45;&gt;Product -->
<g id="edge1" class="edge"><title>Category&#45;&gt;Product</title>
<path fill="none" stroke="#6f8e49" d="M440.688,-226.189C440.688,-214.971 440.688,-201.752 440.688,-190.311"/>
<ellipse fill="none" stroke="#6f8e49" cx="440.688" cy="-230.436" rx="4" ry="4"/>
<polygon fill="#6f8e49" stroke="#6f8e49" points="440.688,-190.011 445.188,-180.011 440.688,-185.011 440.688,-180.011 440.688,-180.011 440.688,-180.011 440.688,-185.011 436.188,-180.011 440.688,-190.011 440.688,-190.011"/>
</g>
<!-- Order -->
<g id="node4" class="node"><title>Order</title>
<ellipse fill="none" stroke="black" cx="440.688" cy="-18" rx="30.9619" ry="18"/>
<text text-anchor="middle" x="440.688" y="-13.8" font-family="Times,serif" font-size="14.00">Order</text>
</g>
<!-- Product&#45;&gt;Order -->
<g id="edge2" class="edge"><title>Product&#45;&gt;Order</title>
<path fill="none" stroke="#7cb9ec" d="M436.109,-135.884C434.717,-127.096 433.374,-117.142 432.688,-108 431.49,-92.0449 431.49,-87.9551 432.688,-72 433.324,-63.5179 434.526,-54.3361 435.809,-46.0356"/>
<ellipse fill="none" stroke="#7cb9ec" cx="436.783" cy="-139.942" rx="4.00001" ry="4.00001"/>
<polygon fill="#7cb9ec" stroke="#7cb9ec" points="435.818,-45.9796 441.88,-36.8417 436.629,-41.0458 437.439,-36.1119 437.439,-36.1119 437.439,-36.1119 436.629,-41.0458 432.999,-35.3822 435.818,-45.9796 435.818,-45.9796"/>
</g>
<!-- User -->
<g id="node6" class="node"><title>User</title>
<ellipse fill="none" stroke="black" cx="468.688" cy="-90" rx="27" ry="18"/>
<text text-anchor="middle" x="468.688" y="-85.8" font-family="Times,serif" font-size="14.00">User</text>
</g>
<!-- Product&#45;&gt;User -->
<g id="edge3" class="edge"><title>Product&#45;&gt;User</title>
<path fill="none" stroke="#c62eb6" d="M451.202,-134.714C453.457,-129.076 455.841,-123.116 458.099,-117.472"/>
<polygon fill="#c62eb6" stroke="#c62eb6" points="451.18,-134.77 443.288,-142.384 449.323,-139.413 447.466,-144.055 447.466,-144.055 447.466,-144.055 449.323,-139.413 451.644,-145.726 451.18,-134.77 451.18,-134.77"/>
<polygon fill="#c62eb6" stroke="#c62eb6" points="458.258,-117.074 466.15,-109.46 460.115,-112.431 461.972,-107.789 461.972,-107.789 461.972,-107.789 460.115,-112.431 457.794,-106.118 458.258,-117.074 458.258,-117.074"/>
</g>
<!-- User&#45;&gt;Order -->
<g id="edge4" class="edge"><title>User&#45;&gt;Order</title>
<path fill="none" stroke="#f7c148" d="M458.999,-64.7779C456.505,-58.544 453.81,-51.8046 451.273,-45.4634"/>
<ellipse fill="none" stroke="#f7c148" cx="460.567" cy="-68.6971" rx="4.00001" ry="4.00001"/>
<polygon fill="#f7c148" stroke="#f7c148" points="451.184,-45.241 451.648,-34.2849 449.327,-40.5986 447.47,-35.9562 447.47,-35.9562 447.47,-35.9562 449.327,-40.5986 443.292,-37.6275 451.184,-45.241 451.184,-45.241"/>
</g>
</g>
</svg>
