<?xml version="1.0" encoding="UTF-8" standalone="no"?>
<!DOCTYPE svg PUBLIC "-//W3C//DTD SVG 1.1//EN"
 "http://www.w3.org/Graphics/SVG/1.1/DTD/svg11.dtd">
<!-- Generated by graphviz version 2.38.0 (20140413.2041)
 -->
<!-- Title: models_diagram Pages: 1 -->
<svg width="920pt" height="954pt"
 viewBox="0.00 0.00 919.55 954.00" xmlns="http://www.w3.org/2000/svg" xmlns:xlink="http://www.w3.org/1999/xlink">
<g id="graph0" class="graph" transform="scale(1 1) rotate(0) translate(4 950)">
<title>models_diagram</title>
<polygon fill="none" stroke="none" points="-4,4 -4,-950 915.55,-950 915.55,4 -4,4"/>
<!-- _diagram_info -->
<g id="node1" class="node"><title>_diagram_info</title>
<text text-anchor="start" x="8" y="-903.6" font-family="Times,serif" font-size="13.00">Models diagram</text>
<text text-anchor="start" x="8" y="-890.6" font-family="Times,serif" font-size="13.00">Date: May 05 2016 &#45; 15:17</text>
<text text-anchor="start" x="8" y="-877.6" font-family="Times,serif" font-size="13.00">Migration version: 20160505181243</text>
<text text-anchor="start" x="8" y="-864.6" font-family="Times,serif" font-size="13.00">Generated by RailRoady 1.4.2</text>
<text text-anchor="start" x="8" y="-851.6" font-family="Times,serif" font-size="13.00">http://railroady.prestonlee.com</text>
</g>
<!-- ApplicationRecord -->
<g id="node2" class="node"><title>ApplicationRecord</title>
<ellipse fill="none" stroke="black" cx="302.688" cy="-881.5" rx="77.2916" ry="18"/>
<text text-anchor="middle" x="302.688" y="-877.3" font-family="Times,serif" font-size="14.00">ApplicationRecord</text>
</g>
<!-- Cart -->
<g id="node3" class="node"><title>Cart</title>
<path fill="none" stroke="black" d="M576.825,-166.5C576.825,-166.5 800.55,-166.5 800.55,-166.5 806.55,-166.5 812.55,-172.5 812.55,-178.5 812.55,-178.5 812.55,-268.5 812.55,-268.5 812.55,-274.5 806.55,-280.5 800.55,-280.5 800.55,-280.5 576.825,-280.5 576.825,-280.5 570.825,-280.5 564.825,-274.5 564.825,-268.5 564.825,-268.5 564.825,-178.5 564.825,-178.5 564.825,-172.5 570.825,-166.5 576.825,-166.5"/>
<text text-anchor="middle" x="688.688" y="-265.3" font-family="Times,serif" font-size="14.00">Cart</text>
<polyline fill="none" stroke="black" points="564.825,-258.5 812.55,-258.5 "/>
<text text-anchor="start" x="572.825" y="-243.3" font-family="Times,serif" font-size="14.00">id :integer</text>
<text text-anchor="start" x="572.825" y="-229.3" font-family="Times,serif" font-size="14.00">total_price :integer</text>
<text text-anchor="start" x="572.825" y="-215.3" font-family="Times,serif" font-size="14.00">open :boolean</text>
<text text-anchor="start" x="572.825" y="-201.3" font-family="Times,serif" font-size="14.00">user_id :integer</text>
<text text-anchor="start" x="572.825" y="-187.3" font-family="Times,serif" font-size="14.00">created_at :timestamp without time zone</text>
<text text-anchor="start" x="572.825" y="-173.3" font-family="Times,serif" font-size="14.00">updated_at :timestamp without time zone</text>
</g>
<!-- Order -->
<g id="node5" class="node"><title>Order</title>
<path fill="none" stroke="black" d="M405.825,-0.5C405.825,-0.5 629.55,-0.5 629.55,-0.5 635.55,-0.5 641.55,-6.5 641.55,-12.5 641.55,-12.5 641.55,-116.5 641.55,-116.5 641.55,-122.5 635.55,-128.5 629.55,-128.5 629.55,-128.5 405.825,-128.5 405.825,-128.5 399.825,-128.5 393.825,-122.5 393.825,-116.5 393.825,-116.5 393.825,-12.5 393.825,-12.5 393.825,-6.5 399.825,-0.5 405.825,-0.5"/>
<text text-anchor="middle" x="517.688" y="-113.3" font-family="Times,serif" font-size="14.00">Order</text>
<polyline fill="none" stroke="black" points="393.825,-106.5 641.55,-106.5 "/>
<text text-anchor="start" x="401.825" y="-91.3" font-family="Times,serif" font-size="14.00">created_at :timestamp without time zone</text>
<text text-anchor="start" x="401.825" y="-77.3" font-family="Times,serif" font-size="14.00">user_id :integer</text>
<text text-anchor="start" x="401.825" y="-63.3" font-family="Times,serif" font-size="14.00">product_id :integer</text>
<text text-anchor="start" x="401.825" y="-49.3" font-family="Times,serif" font-size="14.00">id :integer</text>
<text text-anchor="start" x="401.825" y="-35.3" font-family="Times,serif" font-size="14.00">updated_at :timestamp without time zone</text>
<text text-anchor="start" x="401.825" y="-21.3" font-family="Times,serif" font-size="14.00">cart_id :integer</text>
<text text-anchor="start" x="401.825" y="-7.3" font-family="Times,serif" font-size="14.00">price :integer</text>
</g>
<!-- Cart&#45;&gt;Order -->
<g id="edge1" class="edge"><title>Cart&#45;&gt;Order</title>
<path fill="none" stroke="#fb69fe" d="M621.452,-160.769C612.352,-152.414 602.962,-143.793 593.722,-135.309"/>
<ellipse fill="none" stroke="#fb69fe" cx="624.489" cy="-163.558" rx="4.00002" ry="4.00002"/>
<polygon fill="#fb69fe" stroke="#fb69fe" points="593.718,-135.306 589.395,-125.228 590.035,-131.924 586.352,-128.542 586.352,-128.542 586.352,-128.542 590.035,-131.924 583.308,-131.857 593.718,-135.306 593.718,-135.306"/>
</g>
<!-- Payment -->
<g id="node6" class="node"><title>Payment</title>
<path fill="none" stroke="black" d="M671.825,-14.5C671.825,-14.5 895.55,-14.5 895.55,-14.5 901.55,-14.5 907.55,-20.5 907.55,-26.5 907.55,-26.5 907.55,-102.5 907.55,-102.5 907.55,-108.5 901.55,-114.5 895.55,-114.5 895.55,-114.5 671.825,-114.5 671.825,-114.5 665.825,-114.5 659.825,-108.5 659.825,-102.5 659.825,-102.5 659.825,-26.5 659.825,-26.5 659.825,-20.5 665.825,-14.5 671.825,-14.5"/>
<text text-anchor="middle" x="783.688" y="-99.3" font-family="Times,serif" font-size="14.00">Payment</text>
<polyline fill="none" stroke="black" points="659.825,-92.5 907.55,-92.5 "/>
<text text-anchor="start" x="667.825" y="-77.3" font-family="Times,serif" font-size="14.00">id :integer</text>
<text text-anchor="start" x="667.825" y="-63.3" font-family="Times,serif" font-size="14.00">total :integer</text>
<text text-anchor="start" x="667.825" y="-49.3" font-family="Times,serif" font-size="14.00">cart_id :integer</text>
<text text-anchor="start" x="667.825" y="-35.3" font-family="Times,serif" font-size="14.00">created_at :timestamp without time zone</text>
<text text-anchor="start" x="667.825" y="-21.3" font-family="Times,serif" font-size="14.00">updated_at :timestamp without time zone</text>
</g>
<!-- Cart&#45;&gt;Payment -->
<g id="edge2" class="edge"><title>Cart&#45;&gt;Payment</title>
<path fill="none" stroke="#838666" d="M727.077,-159.057C734.574,-146.667 742.385,-133.758 749.726,-121.627"/>
<ellipse fill="none" stroke="#838666" cx="724.787" cy="-162.841" rx="4.00002" ry="4.00002"/>
<ellipse fill="#838666" stroke="#838666" cx="751.917" cy="-118.006" rx="4.00002" ry="4.00002"/>
</g>
<!-- Category -->
<g id="node4" class="node"><title>Category</title>
<path fill="none" stroke="black" d="M409.825,-838.5C409.825,-838.5 633.55,-838.5 633.55,-838.5 639.55,-838.5 645.55,-844.5 645.55,-850.5 645.55,-850.5 645.55,-912.5 645.55,-912.5 645.55,-918.5 639.55,-924.5 633.55,-924.5 633.55,-924.5 409.825,-924.5 409.825,-924.5 403.825,-924.5 397.825,-918.5 397.825,-912.5 397.825,-912.5 397.825,-850.5 397.825,-850.5 397.825,-844.5 403.825,-838.5 409.825,-838.5"/>
<text text-anchor="middle" x="521.688" y="-909.3" font-family="Times,serif" font-size="14.00">Category</text>
<polyline fill="none" stroke="black" points="397.825,-902.5 645.55,-902.5 "/>
<text text-anchor="start" x="405.825" y="-887.3" font-family="Times,serif" font-size="14.00">id :integer</text>
<text text-anchor="start" x="405.825" y="-873.3" font-family="Times,serif" font-size="14.00">name :character varying</text>
<text text-anchor="start" x="405.825" y="-859.3" font-family="Times,serif" font-size="14.00">created_at :timestamp without time zone</text>
<text text-anchor="start" x="405.825" y="-845.3" font-family="Times,serif" font-size="14.00">updated_at :timestamp without time zone</text>
</g>
<!-- Product -->
<g id="node7" class="node"><title>Product</title>
<path fill="none" stroke="black" d="M409.825,-623.5C409.825,-623.5 633.55,-623.5 633.55,-623.5 639.55,-623.5 645.55,-629.5 645.55,-635.5 645.55,-635.5 645.55,-767.5 645.55,-767.5 645.55,-773.5 639.55,-779.5 633.55,-779.5 633.55,-779.5 409.825,-779.5 409.825,-779.5 403.825,-779.5 397.825,-773.5 397.825,-767.5 397.825,-767.5 397.825,-635.5 397.825,-635.5 397.825,-629.5 403.825,-623.5 409.825,-623.5"/>
<text text-anchor="middle" x="521.688" y="-764.3" font-family="Times,serif" font-size="14.00">Product</text>
<polyline fill="none" stroke="black" points="397.825,-757.5 645.55,-757.5 "/>
<text text-anchor="start" x="405.825" y="-742.3" font-family="Times,serif" font-size="14.00">product_id :integer</text>
<text text-anchor="start" x="405.825" y="-728.3" font-family="Times,serif" font-size="14.00">name :character varying</text>
<text text-anchor="start" x="405.825" y="-714.3" font-family="Times,serif" font-size="14.00">stock :integer</text>
<text text-anchor="start" x="405.825" y="-700.3" font-family="Times,serif" font-size="14.00">category_id :integer</text>
<text text-anchor="start" x="405.825" y="-686.3" font-family="Times,serif" font-size="14.00">created_at :timestamp without time zone</text>
<text text-anchor="start" x="405.825" y="-672.3" font-family="Times,serif" font-size="14.00">updated_at :timestamp without time zone</text>
<text text-anchor="start" x="405.825" y="-658.3" font-family="Times,serif" font-size="14.00">photo :character varying</text>
<text text-anchor="start" x="405.825" y="-644.3" font-family="Times,serif" font-size="14.00">price :integer</text>
<text text-anchor="start" x="405.825" y="-630.3" font-family="Times,serif" font-size="14.00">id :integer</text>
</g>
<!-- Category&#45;&gt;Product -->
<g id="edge3" class="edge"><title>Category&#45;&gt;Product</title>
<path fill="none" stroke="#5ad92b" d="M521.688,-830.277C521.688,-817.601 521.688,-803.621 521.688,-789.7"/>
<ellipse fill="none" stroke="#5ad92b" cx="521.688" cy="-834.316" rx="4" ry="4"/>
<polygon fill="#5ad92b" stroke="#5ad92b" points="521.688,-789.593 526.188,-779.593 521.688,-784.593 521.688,-779.593 521.688,-779.593 521.688,-779.593 521.688,-784.593 517.188,-779.593 521.688,-789.593 521.688,-789.593"/>
</g>
<!-- Product&#45;&gt;Order -->
<g id="edge4" class="edge"><title>Product&#45;&gt;Order</title>
<path fill="none" stroke="#7a2b59" d="M493.5,-615.414C491.118,-605.586 489.088,-595.634 487.688,-586 464.687,-427.74 487.725,-240.002 504.208,-138.86"/>
<ellipse fill="none" stroke="#7a2b59" cx="494.502" cy="-619.384" rx="4.00001" ry="4.00001"/>
<polygon fill="#7a2b59" stroke="#7a2b59" points="504.249,-138.616 510.321,-129.485 505.065,-133.683 505.881,-128.75 505.881,-128.75 505.881,-128.75 505.065,-133.683 501.442,-128.015 504.249,-138.616 504.249,-138.616"/>
</g>
<!-- User -->
<g id="node9" class="node"><title>User</title>
<path fill="none" stroke="black" d="M509.053,-331.5C509.053,-331.5 804.323,-331.5 804.323,-331.5 810.323,-331.5 816.323,-337.5 816.323,-343.5 816.323,-343.5 816.323,-573.5 816.323,-573.5 816.323,-579.5 810.323,-585.5 804.323,-585.5 804.323,-585.5 509.053,-585.5 509.053,-585.5 503.053,-585.5 497.053,-579.5 497.053,-573.5 497.053,-573.5 497.053,-343.5 497.053,-343.5 497.053,-337.5 503.053,-331.5 509.053,-331.5"/>
<text text-anchor="middle" x="656.688" y="-570.3" font-family="Times,serif" font-size="14.00">User</text>
<polyline fill="none" stroke="black" points="497.053,-563.5 816.323,-563.5 "/>
<text text-anchor="start" x="505.053" y="-548.3" font-family="Times,serif" font-size="14.00">longitude :double precision</text>
<text text-anchor="start" x="505.053" y="-534.3" font-family="Times,serif" font-size="14.00">email :character varying</text>
<text text-anchor="start" x="505.053" y="-520.3" font-family="Times,serif" font-size="14.00">encrypted_password :character varying</text>
<text text-anchor="start" x="505.053" y="-506.3" font-family="Times,serif" font-size="14.00">reset_password_token :character varying</text>
<text text-anchor="start" x="505.053" y="-492.3" font-family="Times,serif" font-size="14.00">reset_password_sent_at :timestamp without time zone</text>
<text text-anchor="start" x="505.053" y="-478.3" font-family="Times,serif" font-size="14.00">remember_created_at :timestamp without time zone</text>
<text text-anchor="start" x="505.053" y="-464.3" font-family="Times,serif" font-size="14.00">sign_in_count :integer</text>
<text text-anchor="start" x="505.053" y="-450.3" font-family="Times,serif" font-size="14.00">current_sign_in_at :timestamp without time zone</text>
<text text-anchor="start" x="505.053" y="-436.3" font-family="Times,serif" font-size="14.00">last_sign_in_at :timestamp without time zone</text>
<text text-anchor="start" x="505.053" y="-422.3" font-family="Times,serif" font-size="14.00">current_sign_in_ip :character varying</text>
<text text-anchor="start" x="505.053" y="-408.3" font-family="Times,serif" font-size="14.00">last_sign_in_ip :character varying</text>
<text text-anchor="start" x="505.053" y="-394.3" font-family="Times,serif" font-size="14.00">created_at :timestamp without time zone</text>
<text text-anchor="start" x="505.053" y="-380.3" font-family="Times,serif" font-size="14.00">updated_at :timestamp without time zone</text>
<text text-anchor="start" x="505.053" y="-366.3" font-family="Times,serif" font-size="14.00">address :character varying</text>
<text text-anchor="start" x="505.053" y="-352.3" font-family="Times,serif" font-size="14.00">latitude :double precision</text>
<text text-anchor="start" x="505.053" y="-338.3" font-family="Times,serif" font-size="14.00">id :integer</text>
</g>
<!-- Product&#45;&gt;User -->
<g id="edge5" class="edge"><title>Product&#45;&gt;User</title>
<path fill="none" stroke="#5457a0" d="M569.895,-614.441C573.474,-608.052 577.132,-601.522 580.824,-594.932"/>
<polygon fill="#5457a0" stroke="#5457a0" points="569.847,-614.527 561.034,-621.052 567.403,-618.889 564.96,-623.252 564.96,-623.252 564.96,-623.252 567.403,-618.889 568.886,-625.451 569.847,-614.527 569.847,-614.527"/>
<polygon fill="#5457a0" stroke="#5457a0" points="580.987,-594.639 589.801,-588.114 583.431,-590.277 585.875,-585.915 585.875,-585.915 585.875,-585.915 583.431,-590.277 581.949,-583.715 580.987,-594.639 580.987,-594.639"/>
</g>
<!-- Store -->
<g id="node8" class="node"><title>Store</title>
<path fill="none" stroke="black" d="M675.825,-817.5C675.825,-817.5 899.55,-817.5 899.55,-817.5 905.55,-817.5 911.55,-823.5 911.55,-829.5 911.55,-829.5 911.55,-933.5 911.55,-933.5 911.55,-939.5 905.55,-945.5 899.55,-945.5 899.55,-945.5 675.825,-945.5 675.825,-945.5 669.825,-945.5 663.825,-939.5 663.825,-933.5 663.825,-933.5 663.825,-829.5 663.825,-829.5 663.825,-823.5 669.825,-817.5 675.825,-817.5"/>
<text text-anchor="middle" x="787.688" y="-930.3" font-family="Times,serif" font-size="14.00">Store</text>
<polyline fill="none" stroke="black" points="663.825,-923.5 911.55,-923.5 "/>
<text text-anchor="start" x="671.825" y="-908.3" font-family="Times,serif" font-size="14.00">longitude :double precision</text>
<text text-anchor="start" x="671.825" y="-894.3" font-family="Times,serif" font-size="14.00">name :character varying</text>
<text text-anchor="start" x="671.825" y="-880.3" font-family="Times,serif" font-size="14.00">latitude :double precision</text>
<text text-anchor="start" x="671.825" y="-866.3" font-family="Times,serif" font-size="14.00">id :integer</text>
<text text-anchor="start" x="671.825" y="-852.3" font-family="Times,serif" font-size="14.00">user_id :integer</text>
<text text-anchor="start" x="671.825" y="-838.3" font-family="Times,serif" font-size="14.00">created_at :timestamp without time zone</text>
<text text-anchor="start" x="671.825" y="-824.3" font-family="Times,serif" font-size="14.00">updated_at :timestamp without time zone</text>
</g>
<!-- User&#45;&gt;Cart -->
<g id="edge7" class="edge"><title>User&#45;&gt;Cart</title>
<path fill="none" stroke="#5cabf9" d="M679.321,-323.33C679.795,-319.853 680.252,-316.405 680.688,-313 681.604,-305.846 682.452,-298.354 683.227,-290.885"/>
<ellipse fill="none" stroke="#5cabf9" cx="678.736" cy="-327.526" rx="4.00001" ry="4.00001"/>
<polygon fill="#5cabf9" stroke="#5cabf9" points="683.245,-290.7 688.715,-281.196 683.741,-285.724 684.237,-280.749 684.237,-280.749 684.237,-280.749 683.741,-285.724 679.759,-280.303 683.245,-290.7 683.245,-290.7"/>
</g>
<!-- User&#45;&gt;Cart -->
<g id="edge8" class="edge"><title>User&#45;&gt;Cart</title>
<path fill="none" stroke="#4e114f" d="M623.844,-323.453C624.765,-315.102 626.506,-306.89 629.267,-299 630.565,-295.291 632.133,-291.63 633.911,-288.038"/>
<ellipse fill="none" stroke="#4e114f" cx="623.522" cy="-327.508" rx="4" ry="4"/>
<ellipse fill="#4e114f" stroke="#4e114f" cx="635.934" cy="-284.291" rx="4.00002" ry="4.00002"/>
<text text-anchor="middle" x="652.398" y="-301.8" font-family="Times,serif" font-size="14.00">last_cart</text>
</g>
<!-- User&#45;&gt;Order -->
<g id="edge6" class="edge"><title>User&#45;&gt;Order</title>
<path fill="none" stroke="#f6e924" d="M574.008,-323.918C567.133,-309.737 560.853,-295.277 555.688,-281 539.115,-235.194 529.611,-181.212 524.252,-138.735"/>
<ellipse fill="none" stroke="#f6e924" cx="575.883" cy="-327.718" rx="4.00002" ry="4.00002"/>
<polygon fill="#f6e924" stroke="#f6e924" points="524.245,-138.679 527.509,-128.21 523.643,-133.715 523.042,-128.751 523.042,-128.751 523.042,-128.751 523.643,-133.715 518.574,-129.293 524.245,-138.679 524.245,-138.679"/>
</g>
</g>
</svg>
