<?xml version="1.0" encoding="UTF-8" standalone="no"?>
<!DOCTYPE svg PUBLIC "-//W3C//DTD SVG 1.1//EN"
 "http://www.w3.org/Graphics/SVG/1.1/DTD/svg11.dtd">
<!-- Generated by graphviz version 2.38.0 (20140413.2041)
 -->
<!-- Title: models_diagram Pages: 1 -->
<svg width="783pt" height="646pt"
 viewBox="0.00 0.00 783.32 646.00" xmlns="http://www.w3.org/2000/svg" xmlns:xlink="http://www.w3.org/1999/xlink">
<g id="graph0" class="graph" transform="scale(1 1) rotate(0) translate(4 642)">
<title>models_diagram</title>
<polygon fill="none" stroke="none" points="-4,4 -4,-642 779.323,-642 779.323,4 -4,4"/>
<!-- _diagram_info -->
<g id="node1" class="node"><title>_diagram_info</title>
<text text-anchor="start" x="8" y="-616.6" font-family="Times,serif" font-size="13.00">Models diagram</text>
<text text-anchor="start" x="8" y="-603.6" font-family="Times,serif" font-size="13.00">Date: May 04 2016 &#45; 19:32</text>
<text text-anchor="start" x="8" y="-590.6" font-family="Times,serif" font-size="13.00">Migration version: 20160424041241</text>
<text text-anchor="start" x="8" y="-577.6" font-family="Times,serif" font-size="13.00">Generated by RailRoady 1.4.2</text>
<text text-anchor="start" x="8" y="-564.6" font-family="Times,serif" font-size="13.00">http://railroady.prestonlee.com</text>
</g>
<!-- ApplicationRecord -->
<g id="node2" class="node"><title>ApplicationRecord</title>
<ellipse fill="none" stroke="black" cx="302.688" cy="-594.5" rx="77.2916" ry="18"/>
<text text-anchor="middle" x="302.688" y="-590.3" font-family="Times,serif" font-size="14.00">ApplicationRecord</text>
</g>
<!-- Category -->
<g id="node3" class="node"><title>Category</title>
<path fill="none" stroke="black" d="M409.825,-551.5C409.825,-551.5 633.55,-551.5 633.55,-551.5 639.55,-551.5 645.55,-557.5 645.55,-563.5 645.55,-563.5 645.55,-625.5 645.55,-625.5 645.55,-631.5 639.55,-637.5 633.55,-637.5 633.55,-637.5 409.825,-637.5 409.825,-637.5 403.825,-637.5 397.825,-631.5 397.825,-625.5 397.825,-625.5 397.825,-563.5 397.825,-563.5 397.825,-557.5 403.825,-551.5 409.825,-551.5"/>
<text text-anchor="middle" x="521.688" y="-622.3" font-family="Times,serif" font-size="14.00">Category</text>
<polyline fill="none" stroke="black" points="397.825,-615.5 645.55,-615.5 "/>
<text text-anchor="start" x="405.825" y="-600.3" font-family="Times,serif" font-size="14.00">id :integer</text>
<text text-anchor="start" x="405.825" y="-586.3" font-family="Times,serif" font-size="14.00">name :character varying</text>
<text text-anchor="start" x="405.825" y="-572.3" font-family="Times,serif" font-size="14.00">created_at :timestamp without time zone</text>
<text text-anchor="start" x="405.825" y="-558.3" font-family="Times,serif" font-size="14.00">updated_at :timestamp without time zone</text>
</g>
<!-- Product -->
<g id="node5" class="node"><title>Product</title>
<path fill="none" stroke="black" d="M409.825,-386.5C409.825,-386.5 633.55,-386.5 633.55,-386.5 639.55,-386.5 645.55,-392.5 645.55,-398.5 645.55,-398.5 645.55,-502.5 645.55,-502.5 645.55,-508.5 639.55,-514.5 633.55,-514.5 633.55,-514.5 409.825,-514.5 409.825,-514.5 403.825,-514.5 397.825,-508.5 397.825,-502.5 397.825,-502.5 397.825,-398.5 397.825,-398.5 397.825,-392.5 403.825,-386.5 409.825,-386.5"/>
<text text-anchor="middle" x="521.688" y="-499.3" font-family="Times,serif" font-size="14.00">Product</text>
<polyline fill="none" stroke="black" points="397.825,-492.5 645.55,-492.5 "/>
<text text-anchor="start" x="405.825" y="-477.3" font-family="Times,serif" font-size="14.00">category_id :integer</text>
<text text-anchor="start" x="405.825" y="-463.3" font-family="Times,serif" font-size="14.00">name :character varying</text>
<text text-anchor="start" x="405.825" y="-449.3" font-family="Times,serif" font-size="14.00">stock :integer</text>
<text text-anchor="start" x="405.825" y="-435.3" font-family="Times,serif" font-size="14.00">id :integer</text>
<text text-anchor="start" x="405.825" y="-421.3" font-family="Times,serif" font-size="14.00">created_at :timestamp without time zone</text>
<text text-anchor="start" x="405.825" y="-407.3" font-family="Times,serif" font-size="14.00">updated_at :timestamp without time zone</text>
<text text-anchor="start" x="405.825" y="-393.3" font-family="Times,serif" font-size="14.00">photo :character varying</text>
</g>
<!-- Category&#45;&gt;Product -->
<g id="edge1" class="edge"><title>Category&#45;&gt;Product</title>
<path fill="none" stroke="#09f5f9" d="M521.688,-543.275C521.688,-537.329 521.688,-531.171 521.688,-524.986"/>
<ellipse fill="none" stroke="#09f5f9" cx="521.688" cy="-547.28" rx="4" ry="4"/>
<polygon fill="#09f5f9" stroke="#09f5f9" points="521.688,-524.588 526.188,-514.588 521.688,-519.588 521.688,-514.588 521.688,-514.588 521.688,-514.588 521.688,-519.588 517.188,-514.588 521.688,-524.588 521.688,-524.588"/>
</g>
<!-- Order -->
<g id="node4" class="node"><title>Order</title>
<path fill="none" stroke="black" d="M409.825,-0.5C409.825,-0.5 633.55,-0.5 633.55,-0.5 639.55,-0.5 645.55,-6.5 645.55,-12.5 645.55,-12.5 645.55,-88.5 645.55,-88.5 645.55,-94.5 639.55,-100.5 633.55,-100.5 633.55,-100.5 409.825,-100.5 409.825,-100.5 403.825,-100.5 397.825,-94.5 397.825,-88.5 397.825,-88.5 397.825,-12.5 397.825,-12.5 397.825,-6.5 403.825,-0.5 409.825,-0.5"/>
<text text-anchor="middle" x="521.688" y="-85.3" font-family="Times,serif" font-size="14.00">Order</text>
<polyline fill="none" stroke="black" points="397.825,-78.5 645.55,-78.5 "/>
<text text-anchor="start" x="405.825" y="-63.3" font-family="Times,serif" font-size="14.00">id :integer</text>
<text text-anchor="start" x="405.825" y="-49.3" font-family="Times,serif" font-size="14.00">user_id :integer</text>
<text text-anchor="start" x="405.825" y="-35.3" font-family="Times,serif" font-size="14.00">product_id :integer</text>
<text text-anchor="start" x="405.825" y="-21.3" font-family="Times,serif" font-size="14.00">created_at :timestamp without time zone</text>
<text text-anchor="start" x="405.825" y="-7.3" font-family="Times,serif" font-size="14.00">updated_at :timestamp without time zone</text>
</g>
<!-- Product&#45;&gt;Order -->
<g id="edge2" class="edge"><title>Product&#45;&gt;Order</title>
<path fill="none" stroke="#2a5252" d="M460.645,-379.536C454.972,-370.097 450.085,-360.152 446.688,-350 416.643,-260.227 413.336,-225.597 446.688,-137 450.378,-127.197 455.759,-117.786 461.972,-109.025"/>
<ellipse fill="none" stroke="#2a5252" cx="462.777" cy="-382.929" rx="4.00002" ry="4.00002"/>
<polygon fill="#2a5252" stroke="#2a5252" points="462.131,-108.814 471.747,-103.543 465.143,-104.823 468.156,-100.832 468.156,-100.832 468.156,-100.832 465.143,-104.823 464.564,-98.1212 462.131,-108.814 462.131,-108.814"/>
</g>
<!-- User -->
<g id="node6" class="node"><title>User</title>
<path fill="none" stroke="black" d="M468.053,-137.5C468.053,-137.5 763.323,-137.5 763.323,-137.5 769.323,-137.5 775.323,-143.5 775.323,-149.5 775.323,-149.5 775.323,-337.5 775.323,-337.5 775.323,-343.5 769.323,-349.5 763.323,-349.5 763.323,-349.5 468.053,-349.5 468.053,-349.5 462.053,-349.5 456.053,-343.5 456.053,-337.5 456.053,-337.5 456.053,-149.5 456.053,-149.5 456.053,-143.5 462.053,-137.5 468.053,-137.5"/>
<text text-anchor="middle" x="615.688" y="-334.3" font-family="Times,serif" font-size="14.00">User</text>
<polyline fill="none" stroke="black" points="456.053,-327.5 775.323,-327.5 "/>
<text text-anchor="start" x="464.053" y="-312.3" font-family="Times,serif" font-size="14.00">updated_at :timestamp without time zone</text>
<text text-anchor="start" x="464.053" y="-298.3" font-family="Times,serif" font-size="14.00">email :character varying</text>
<text text-anchor="start" x="464.053" y="-284.3" font-family="Times,serif" font-size="14.00">encrypted_password :character varying</text>
<text text-anchor="start" x="464.053" y="-270.3" font-family="Times,serif" font-size="14.00">reset_password_token :character varying</text>
<text text-anchor="start" x="464.053" y="-256.3" font-family="Times,serif" font-size="14.00">reset_password_sent_at :timestamp without time zone</text>
<text text-anchor="start" x="464.053" y="-242.3" font-family="Times,serif" font-size="14.00">remember_created_at :timestamp without time zone</text>
<text text-anchor="start" x="464.053" y="-228.3" font-family="Times,serif" font-size="14.00">sign_in_count :integer</text>
<text text-anchor="start" x="464.053" y="-214.3" font-family="Times,serif" font-size="14.00">current_sign_in_at :timestamp without time zone</text>
<text text-anchor="start" x="464.053" y="-200.3" font-family="Times,serif" font-size="14.00">last_sign_in_at :timestamp without time zone</text>
<text text-anchor="start" x="464.053" y="-186.3" font-family="Times,serif" font-size="14.00">current_sign_in_ip :character varying</text>
<text text-anchor="start" x="464.053" y="-172.3" font-family="Times,serif" font-size="14.00">last_sign_in_ip :character varying</text>
<text text-anchor="start" x="464.053" y="-158.3" font-family="Times,serif" font-size="14.00">created_at :timestamp without time zone</text>
<text text-anchor="start" x="464.053" y="-144.3" font-family="Times,serif" font-size="14.00">id :integer</text>
</g>
<!-- Product&#45;&gt;User -->
<g id="edge3" class="edge"><title>Product&#45;&gt;User</title>
<path fill="none" stroke="#148277" d="M554.856,-377.166C557.601,-371.178 560.416,-365.038 563.258,-358.841"/>
<polygon fill="#148277" stroke="#148277" points="554.826,-377.231 546.567,-384.445 552.742,-381.776 550.658,-386.321 550.658,-386.321 550.658,-386.321 552.742,-381.776 554.748,-388.196 554.826,-377.231 554.826,-377.231"/>
<polygon fill="#148277" stroke="#148277" points="563.268,-358.819 571.527,-351.605 565.352,-354.274 567.436,-349.729 567.436,-349.729 567.436,-349.729 565.352,-354.274 563.346,-347.854 563.268,-358.819 563.268,-358.819"/>
</g>
<!-- User&#45;&gt;Order -->
<g id="edge4" class="edge"><title>User&#45;&gt;Order</title>
<path fill="none" stroke="#12a407" d="M560.251,-129.858C556.925,-123.098 553.656,-116.458 550.516,-110.077"/>
<ellipse fill="none" stroke="#12a407" cx="562.11" cy="-133.634" rx="4.00002" ry="4.00002"/>
<polygon fill="#12a407" stroke="#12a407" points="550.431,-109.903 550.052,-98.9437 548.223,-105.417 546.015,-100.931 546.015,-100.931 546.015,-100.931 548.223,-105.417 541.977,-102.918 550.431,-109.903 550.431,-109.903"/>
</g>
</g>
</svg>
