<?xml version="1.0" encoding="UTF-8" standalone="no"?>
<!DOCTYPE svg PUBLIC "-//W3C//DTD SVG 1.1//EN"
 "http://www.w3.org/Graphics/SVG/1.1/DTD/svg11.dtd">
<!-- Generated by graphviz version 2.38.0 (20140413.2041)
 -->
<!-- Title: models_diagram Pages: 1 -->
<svg width="587pt" height="386pt"
 viewBox="0.00 0.00 586.74 386.00" xmlns="http://www.w3.org/2000/svg" xmlns:xlink="http://www.w3.org/1999/xlink">
<g id="graph0" class="graph" transform="scale(1 1) rotate(0) translate(4 382)">
<title>models_diagram</title>
<polygon fill="none" stroke="none" points="-4,4 -4,-382 582.742,-382 582.742,4 -4,4"/>
<!-- _diagram_info -->
<g id="node1" class="node"><title>_diagram_info</title>
<text text-anchor="start" x="8" y="-363.6" font-family="Times,serif" font-size="13.00">Models diagram</text>
<text text-anchor="start" x="8" y="-350.6" font-family="Times,serif" font-size="13.00">Date: May 05 2016 &#45; 15:17</text>
<text text-anchor="start" x="8" y="-337.6" font-family="Times,serif" font-size="13.00">Migration version: 20160505181243</text>
<text text-anchor="start" x="8" y="-324.6" font-family="Times,serif" font-size="13.00">Generated by RailRoady 1.4.2</text>
<text text-anchor="start" x="8" y="-311.6" font-family="Times,serif" font-size="13.00">http://railroady.prestonlee.com</text>
</g>
<!-- ApplicationRecord -->
<g id="node2" class="node"><title>ApplicationRecord</title>
<ellipse fill="none" stroke="black" cx="302.688" cy="-341.5" rx="77.2916" ry="18"/>
<text text-anchor="middle" x="302.688" y="-337.3" font-family="Times,serif" font-size="14.00">ApplicationRecord</text>
</g>
<!-- Cart -->
<g id="node3" class="node"><title>Cart</title>
<ellipse fill="none" stroke="black" cx="528.688" cy="-91" rx="27" ry="18"/>
<text text-anchor="middle" x="528.688" y="-86.8" font-family="Times,serif" font-size="14.00">Cart</text>
</g>
<!-- Order -->
<g id="node5" class="node"><title>Order</title>
<ellipse fill="none" stroke="black" cx="447.688" cy="-18" rx="30.9619" ry="18"/>
<text text-anchor="middle" x="447.688" y="-13.8" font-family="Times,serif" font-size="14.00">Order</text>
</g>
<!-- Cart&#45;&gt;Order -->
<g id="edge1" class="edge"><title>Cart&#45;&gt;Order</title>
<path fill="none" stroke="#c907ed" d="M506.783,-70.7997C495.959,-61.3118 482.871,-49.8398 471.766,-40.1059"/>
<ellipse fill="none" stroke="#c907ed" cx="510.062" cy="-73.6738" rx="4.00002" ry="4.00002"/>
<polygon fill="#c907ed" stroke="#c907ed" points="471.612,-39.9702 467.058,-29.9946 467.852,-36.6744 464.091,-33.3786 464.091,-33.3786 464.091,-33.3786 467.852,-36.6744 461.125,-36.7626 471.612,-39.9702 471.612,-39.9702"/>
</g>
<!-- Payment -->
<g id="node6" class="node"><title>Payment</title>
<ellipse fill="none" stroke="black" cx="537.688" cy="-18" rx="41.1093" ry="18"/>
<text text-anchor="middle" x="537.688" y="-13.8" font-family="Times,serif" font-size="14.00">Payment</text>
</g>
<!-- Cart&#45;&gt;Payment -->
<g id="edge2" class="edge"><title>Cart&#45;&gt;Payment</title>
<path fill="none" stroke="#3edb61" d="M531.883,-64.791C532.733,-58.0872 533.651,-50.8474 534.5,-44.1468"/>
<ellipse fill="none" stroke="#3edb61" cx="531.369" cy="-68.8446" rx="4.00001" ry="4.00001"/>
<ellipse fill="#3edb61" stroke="#3edb61" cx="535.026" cy="-39.9971" rx="4.00001" ry="4.00001"/>
</g>
<!-- Category -->
<g id="node4" class="node"><title>Category</title>
<ellipse fill="none" stroke="black" cx="440.688" cy="-341.5" rx="42.5456" ry="18"/>
<text text-anchor="middle" x="440.688" y="-337.3" font-family="Times,serif" font-size="14.00">Category</text>
</g>
<!-- Product -->
<g id="node7" class="node"><title>Product</title>
<ellipse fill="none" stroke="black" cx="440.688" cy="-250" rx="37.7352" ry="18"/>
<text text-anchor="middle" x="440.688" y="-245.8" font-family="Times,serif" font-size="14.00">Product</text>
</g>
<!-- Category&#45;&gt;Product -->
<g id="edge3" class="edge"><title>Category&#45;&gt;Product</title>
<path fill="none" stroke="#023cb3" d="M440.688,-314.903C440.688,-303.441 440.688,-289.914 440.688,-278.263"/>
<ellipse fill="none" stroke="#023cb3" cx="440.688" cy="-319.243" rx="4" ry="4"/>
<polygon fill="#023cb3" stroke="#023cb3" points="440.688,-278.204 445.188,-268.203 440.688,-273.204 440.688,-268.204 440.688,-268.204 440.688,-268.204 440.688,-273.204 436.188,-268.204 440.688,-278.204 440.688,-278.204"/>
</g>
<!-- Product&#45;&gt;Order -->
<g id="edge4" class="edge"><title>Product&#45;&gt;Order</title>
<path fill="none" stroke="#a2549c" d="M441.463,-223.534C442.791,-179.9 445.49,-91.2173 446.856,-46.3335"/>
<ellipse fill="none" stroke="#a2549c" cx="441.336" cy="-227.714" rx="4" ry="4"/>
<polygon fill="#a2549c" stroke="#a2549c" points="446.861,-46.1696 451.663,-36.3112 447.013,-41.1719 447.165,-36.1742 447.165,-36.1742 447.165,-36.1742 447.013,-41.1719 442.667,-36.0373 446.861,-46.1696 446.861,-46.1696"/>
</g>
<!-- User -->
<g id="node9" class="node"><title>User</title>
<ellipse fill="none" stroke="black" cx="481.688" cy="-177" rx="27" ry="18"/>
<text text-anchor="middle" x="481.688" y="-172.8" font-family="Times,serif" font-size="14.00">User</text>
</g>
<!-- Product&#45;&gt;User -->
<g id="edge5" class="edge"><title>Product&#45;&gt;User</title>
<path fill="none" stroke="#dfc25c" d="M455.33,-223.644C459.196,-216.949 463.366,-209.728 467.223,-203.049"/>
<polygon fill="#dfc25c" stroke="#dfc25c" points="455.198,-223.873 446.3,-230.282 452.697,-228.203 450.197,-232.533 450.197,-232.533 450.197,-232.533 452.697,-228.203 454.094,-234.783 455.198,-223.873 455.198,-223.873"/>
<polygon fill="#dfc25c" stroke="#dfc25c" points="467.229,-203.038 476.127,-196.628 469.73,-198.708 472.23,-194.378 472.23,-194.378 472.23,-194.378 469.73,-198.708 468.333,-192.128 467.229,-203.038 467.229,-203.038"/>
</g>
<!-- Store -->
<g id="node8" class="node"><title>Store</title>
<ellipse fill="none" stroke="black" cx="529.688" cy="-341.5" rx="28.5497" ry="18"/>
<text text-anchor="middle" x="529.688" y="-337.3" font-family="Times,serif" font-size="14.00">Store</text>
</g>
<!-- User&#45;&gt;Cart -->
<g id="edge7" class="edge"><title>User&#45;&gt;Cart</title>
<path fill="none" stroke="#1350d2" d="M512.364,-164.116C522.255,-158.65 532.097,-151.086 537.688,-141 541.536,-134.057 541.468,-125.794 539.797,-118.05"/>
<ellipse fill="none" stroke="#1350d2" cx="508.784" cy="-165.927" rx="4.00002" ry="4.00002"/>
<polygon fill="#1350d2" stroke="#1350d2" points="539.752,-117.9 541.182,-107.027 538.312,-113.112 536.872,-108.323 536.872,-108.323 536.872,-108.323 538.312,-113.112 532.563,-109.619 539.752,-117.9 539.752,-117.9"/>
</g>
<!-- User&#45;&gt;Cart -->
<g id="edge8" class="edge"><title>User&#45;&gt;Cart</title>
<path fill="none" stroke="#5be3d4" d="M480.335,-150.746C480.858,-142.77 482.468,-134.173 486.267,-127 490.008,-119.936 495.839,-113.749 501.993,-108.621"/>
<ellipse fill="none" stroke="#5be3d4" cx="480.237" cy="-154.75" rx="4" ry="4"/>
<ellipse fill="#5be3d4" stroke="#5be3d4" cx="505.536" cy="-105.911" rx="4.00002" ry="4.00002"/>
<text text-anchor="middle" x="509.398" y="-129.8" font-family="Times,serif" font-size="14.00">last_cart</text>
</g>
<!-- User&#45;&gt;Order -->
<g id="edge6" class="edge"><title>User&#45;&gt;Order</title>
<path fill="none" stroke="#0b7d49" d="M476.242,-150.852C470.035,-122.193 459.928,-75.523 453.553,-46.0816"/>
<ellipse fill="none" stroke="#0b7d49" cx="477.138" cy="-154.99" rx="4.00001" ry="4.00001"/>
<polygon fill="#0b7d49" stroke="#0b7d49" points="453.503,-45.853 455.785,-35.1271 452.445,-40.9663 451.386,-36.0795 451.386,-36.0795 451.386,-36.0795 452.445,-40.9663 446.988,-37.032 453.503,-45.853 453.503,-45.853"/>
</g>
</g>
</svg>
